# xmcd
#
# Track frame offsets:
#	150
#	25469
#	39973
#	59805
#	74190
#	87788
#	104750
#	120392
#	135331
#	148640
#
# Disc length: 2222 seconds
#
# Revision: 0
# Processed by: cddbd v1.4PL0 Copyright (c) Steve Scherf et al.
# Submitted via: EasyCDDAExtractor 4.6.0.1
#
DISCID=9408ac0a
DTITLE=Los Ramblers - El Mosquito
DYEAR=1900
DGENRE=latin
TTITLE0=Pobre La Maria
TTITLE1=El Mosquito
TTITLE2=Imaginemos
TTITLE3=A Borinquen Volvere
TTITLE4=Blue Jean Ajustado
TTITLE5=El Calendario
TTITLE6=La Mujercita Celosa
TTITLE7=Ella
TTITLE8=Morena
TTITLE9=Noche Sin Luna
EXTD=
EXTT0=
EXTT1=
EXTT2=
EXTT3=
EXTT4=
EXTT5=
EXTT6=
EXTT7=
EXTT8=
EXTT9=
PLAYORDER=
